<svg width="32" height="32" viewBox="0 0 32 32" fill="none" xmlns="http://www.w3.org/2000/svg">
<circle cx="16" cy="16" r="16" fill="#111"/>
<path d="M16 7C11.03 7 7 11.03 7 16C7 20.08 9.87 23.44 13.84 24.5C14.34 24.58 14.5 24.29 14.5 24.04C14.5 23.82 14.49 23.22 14.49 22.5C11.73 23.09 11.14 21.29 11.14 21.29C10.68 20.13 10.03 19.84 10.03 19.84C9.09 19.21 10.1 19.23 10.1 19.23C11.13 19.31 11.65 20.29 11.65 20.29C12.57 21.87 14.03 21.43 14.6 21.19C14.68 20.54 14.93 20.09 15.21 19.85C13.18 19.61 11.03 18.84 11.03 15.64C11.03 14.7 11.36 13.94 11.91 13.33C11.82 13.09 11.53 12.18 12 10.97C12 10.97 12.7 10.72 14.5 11.82C15.17 11.63 15.89 11.54 16.61 11.54C17.33 11.54 18.05 11.63 18.72 11.82C20.52 10.72 21.22 10.97 21.22 10.97C21.69 12.18 21.4 13.09 21.31 13.33C21.86 13.94 22.19 14.7 22.19 15.64C22.19 18.85 20.03 19.6 17.99 19.84C18.34 20.13 18.65 20.7 18.65 21.57C18.65 22.77 18.64 23.7 18.64 24.04C18.64 24.29 18.8 24.59 19.31 24.5C23.28 23.44 26.15 20.08 26.15 16C26.15 11.03 22.12 7 17.15 7H16Z" fill="#fff"/>
</svg> 